<?xml version="1.0" encoding="utf-8"?>
<!-- Generator: Adobe Illustrator 22.0.0, SVG Export Plug-In . SVG Version: 6.00 Build 0)  -->
<svg version="1.1" id="Layer_1" xmlns="http://www.w3.org/2000/svg" xmlns:xlink="http://www.w3.org/1999/xlink" x="0px" y="0px"
	 width="317px" height="58px" viewBox="0 0 317 58" style="enable-background:new 0 0 317 58;" xml:space="preserve">
<style type="text/css">
	.st0{fill:#00D7FF;}
	.st1{fill:#007DDC;}
	.st2{fill:#FFBE00;}
	.st3{fill:#FF6C00;}
</style>
<g>
	<path class="st0" d="M7.7,17.6c0.6,0,1.2-0.1,1.8-0.2c2.6-0.5,4.8-1.9,6.3-4.1s2-4.8,1.6-7.4V5.8c0.9-0.2,1.8-0.3,2.7-0.3H24
		c2.5,0,4.6,2.1,4.6,4.6s-2.1,4.6-4.6,4.6h-3.9c-2.8,0-5,2.2-5,5v4c0,2.5-2.1,4.6-4.6,4.6s-4.6-2.1-4.6-4.6v-4
		c0-0.8,0.1-1.6,0.2-2.3C6.6,17.5,7.1,17.6,7.7,17.6"/>
	<path class="st1" d="M6.3,0.1C6.8,0,7.2,0,7.7,0c3.6,0,6.9,2.6,7.6,6.3c0.8,4.2-2,8.2-6.2,9c-0.5,0.1-1,0.1-1.4,0.1
		c-3.6,0-6.9-2.6-7.6-6.3C-0.6,4.9,2.1,0.9,6.3,0.1"/>
	<path class="st2" d="M39.4,27.5c-1,0-1.9,0.2-2.7,0.6v-10c0-2.9-2.4-5.3-5.3-5.3h-1.3c0.4-0.8,0.6-1.8,0.6-2.7s-0.2-1.9-0.6-2.7
		h1.3c5.9,0,10.7,4.8,10.7,10.7v10C41.3,27.7,40.4,27.5,39.4,27.5"/>
	<path class="st3" d="M42.1,40.5c-0.6,0-1.2,0.1-1.8,0.2c-2.6,0.5-4.8,1.9-6.3,4.1c-1.5,2.2-2,4.8-1.6,7.4v0.1
		c-0.9,0.2-1.8,0.3-2.7,0.3h-3.9c-2.5,0-4.6-2.1-4.6-4.6s2.1-4.6,4.6-4.6h3.9c2.8,0,5-2.2,5-5v-4c0-2.5,2.1-4.6,4.6-4.6
		s4.6,2.1,4.6,4.6v4c0,0.8-0.1,1.6-0.2,2.3C43.3,40.5,42.7,40.5,42.1,40.5"/>
	<path class="st2" d="M43.6,57.9c-0.5,0.1-1,0.1-1.4,0.1c-3.6,0-6.9-2.6-7.6-6.3c-0.8-4.2,2-8.2,6.2-9c0.5-0.1,1-0.1,1.4-0.1
		c3.6,0,6.9,2.6,7.6,6.3C50.5,53.1,47.7,57.1,43.6,57.9"/>
	<path class="st1" d="M21.2,48C21.2,48,21.2,47.9,21.2,48C21.2,47.9,21.2,47.9,21.2,48C21.2,47.9,21.2,48,21.2,48"/>
	<path class="st1" d="M10.4,30.5c1,0,1.9-0.2,2.7-0.6v10c0,2.9,2.4,5.3,5.3,5.3h1.3C19.3,46,19.1,47,19.1,48s0.2,1.9,0.6,2.7h-1.2
		c-5.9,0-10.7-4.8-10.7-10.7V30C8.5,30.3,9.5,30.5,10.4,30.5"/>
	<path class="st1" d="M28.6,29.7c0,2.1-1.7,3.8-3.8,3.8S21,31.8,21,29.7s1.7-3.8,3.8-3.8C26.9,25.9,28.6,27.6,28.6,29.7"/>
</g>
<g>
	<g>
		<polygon class="st1" points="68.2,22.8 68.2,27.7 78.6,27.7 78.6,34.7 68.2,34.7 68.2,43.8 60.6,43.8 60.6,15.9 68.2,15.9 
			84,15.9 84,22.8 		"/>
		<path class="st1" d="M85.6,29.8c0-8,5.8-14.6,15.1-14.6s15.1,6.6,15.1,14.6s-5.8,14.6-15.1,14.6S85.6,37.8,85.6,29.8 M108.1,29.8
			c0-4.3-2.8-7.5-7.4-7.5s-7.4,3.2-7.4,7.5s2.8,7.5,7.4,7.5C105.4,37.3,108.1,34.1,108.1,29.8"/>
		<path class="st1" d="M147.1,43.5v0.3h-8l-5.8-8.8h-5.4v8.8h-7.6v-28h7.6h7.5c5.8,0,10.1,3.9,10.1,9.6c0,3.9-2,6.9-5,8.4
			L147.1,43.5z M127.9,28.7h6.5c2.1,0,3.5-1.2,3.5-3.1c0-1.9-1.4-3.1-3.5-3.1h-6.5V28.7z"/>
		<path class="st1" d="M148.6,29.8c0-8,5.6-14.6,14.6-14.6c5.9,0,10.6,2.9,12.6,7.3l-6.3,3.6c-1-2.4-3.3-3.8-6.2-3.8
			c-4.6,0-7,3.3-7,7.5s2.6,7.5,7.1,7.5c3,0,5.3-1.5,6.3-3.8l6.3,3.6c-2,4.4-6.7,7.3-12.7,7.3C154.3,44.4,148.6,37.8,148.6,29.8"/>
		<polygon class="st1" points="203.1,37 203.1,43.8 182,43.8 179.9,43.8 179.9,15.9 187.5,15.9 202.8,15.9 202.8,22.7 187.5,22.7 
			187.5,26.6 197.2,26.6 197.2,33 187.5,33 187.5,37 		"/>
		<path class="st1" d="M228.7,40.6l3.2-6.3c2.9,2.4,6.2,3.4,10.3,3.4c3.2,0,5-0.7,5-2.4c0-1.2-1-1.5-6.4-2.2
			c-6-0.9-11.6-1.8-11.6-8.3c0-6,5.1-9.6,12.3-9.6c6.5,0,10.6,2.8,12.3,6.5l-6.1,3.1c-0.8-2.2-3.2-3-6.3-3c-3.5,0-4.6,1.1-4.6,2.4
			c0,1.2,1.1,1.6,6.1,2.3c6.1,0.9,11.9,2,11.9,8.5c0,6.3-5.5,9.4-13.1,9.4C236.6,44.4,232.4,43.2,228.7,40.6"/>
		<path class="st1" d="M257.8,29.8c0-8,5.8-14.6,15.1-14.6c9.3,0,15.1,6.6,15.1,14.6s-5.8,14.6-15.1,14.6S257.8,37.8,257.8,29.8
			 M280.2,29.8c0-4.3-2.8-7.5-7.4-7.5s-7.4,3.2-7.4,7.5s2.8,7.5,7.4,7.5C277.5,37.3,280.2,34.1,280.2,29.8"/>
		<path class="st1" d="M290.9,40.6l3.2-6.3c2.9,2.4,6.2,3.4,10.3,3.4c3.2,0,5-0.7,5-2.4c0-1.2-1-1.5-6.4-2.2
			c-6-0.9-11.6-1.8-11.6-8.3c0-6,5.1-9.6,12.3-9.6c6.5,0,10.6,2.8,12.3,6.5l-6.1,3.1c-0.8-2.2-3.2-3-6.3-3c-3.5,0-4.6,1.1-4.6,2.4
			c0,1.2,1.1,1.6,6.1,2.3c6.1,0.9,11.9,2,11.9,8.5c0,6.3-5.5,9.4-13.1,9.4C298.8,44.4,294.6,43.2,290.9,40.6"/>
		<rect x="210.1" y="27.4" class="st1" width="12.8" height="3.8"/>
	</g>
</g>
</svg>
