<?xml version="1.0" encoding="utf-8"?>
<!-- Generator: Adobe Illustrator 22.0.0, SVG Export Plug-In . SVG Version: 6.00 Build 0)  -->
<svg version="1.1" id="Layer_1" xmlns="http://www.w3.org/2000/svg" xmlns:xlink="http://www.w3.org/1999/xlink" x="0px" y="0px"
	 width="26.7px" height="31px" viewBox="0 0 26.7 31" style="enable-background:new 0 0 26.7 31;" xml:space="preserve">
<style type="text/css">
	.st0{fill:#00DAFF;}
	.st1{fill:#007DE6;}
	.st2{fill:#FFBC00;}
	.st3{fill:#FF6000;}
	.st4{fill:#0A006D;}
	.st5{display:none;fill:#FFFFFF;}
</style>
<g>
	<path class="st0" d="M4.2,9.4c0.3,0,0.7,0,1-0.1c1.4-0.3,2.6-1,3.4-2.2c0.8-1.2,1.1-2.6,0.8-3.9l0,0c0.5-0.1,1-0.2,1.4-0.2h2.1
		c1.4,0,2.5,1.1,2.5,2.5S14.3,8,12.9,8h-2.1c-1.5,0-2.7,1.2-2.7,2.7v2.2c0,1.4-1.1,2.5-2.5,2.5s-2.5-1.1-2.5-2.5v-2.2
		c0-0.4,0-0.8,0.1-1.3C3.6,9.3,3.9,9.4,4.2,9.4"/>
	<path class="st1" d="M3.4,0.1C3.7,0,3.9,0,4.2,0c1.9,0,3.7,1.4,4,3.4c0.4,2.2-1.1,4.4-3.3,4.8c-0.3,0-0.5,0.1-0.8,0.1
		c-1.9,0-3.7-1.4-4-3.4C-0.3,2.6,1.2,0.5,3.4,0.1"/>
	<path class="st2" d="M21.1,14.7c-0.5,0-1,0.1-1.5,0.3V9.7c0-1.6-1.3-2.8-2.8-2.8h-0.7c0.2-0.4,0.3-0.9,0.3-1.5c0-0.5-0.1-1-0.3-1.5
		h0.8c3.2,0,5.7,2.6,5.7,5.7V15C22.2,14.8,21.7,14.7,21.1,14.7"/>
	<path class="st3" d="M22.6,21.6c-0.3,0-0.7,0-1,0.1c-1.4,0.3-2.6,1-3.4,2.2s-1.1,2.6-0.8,3.9l0,0c-0.5,0.1-1,0.2-1.4,0.2h-2.1
		c-1.4,0-2.5-1.1-2.5-2.5s1.1-2.5,2.5-2.5H16c1.5,0,2.7-1.2,2.7-2.7v-2.2c0-1.4,1.1-2.5,2.5-2.5s2.5,1.1,2.5,2.5v2.2
		c0,0.4,0,0.8-0.1,1.3C23.2,21.7,22.9,21.6,22.6,21.6"/>
	<path class="st2" d="M23.4,30.9C23.1,31,22.9,31,22.6,31c-1.9,0-3.7-1.4-4-3.4c-0.4-2.2,1.1-4.4,3.3-4.8c0.3,0,0.5-0.1,0.8-0.1
		c1.9,0,3.7,1.4,4,3.4C27.1,28.4,25.6,30.5,23.4,30.9"/>
	<path class="st1" d="M5.7,16.3c0.5,0,1-0.1,1.5-0.3v5.3c0,1.6,1.3,2.8,2.8,2.8h0.7c-0.2,0.5-0.3,0.9-0.3,1.5c0,0.5,0.1,1,0.3,1.4
		H9.9c-3.2,0-5.7-2.6-5.7-5.7V16C4.6,16.2,5.1,16.3,5.7,16.3"/>
	<path class="st4" d="M15.4,15.8c0,1.1-0.9,2-2,2s-2-0.9-2-2s0.9-2,2-2C14.5,13.8,15.4,14.7,15.4,15.8"/>
	<path class="st5" d="M15.4,15.8c0,1.1-0.9,2-2,2s-2-0.9-2-2s0.9-2,2-2C14.5,13.8,15.4,14.7,15.4,15.8"/>
</g>
</svg>
